<svg xmlns="http://www.w3.org/2000/svg" viewBox="0 0 406 406"><defs><style>.cls-1{fill:none;}.cls-2{fill:#282828;}</style></defs><title>Recurso 1</title><g id="Capa_2" data-name="Capa 2"><g id="Capa_1-2" data-name="Capa 1"><rect id="Rect치ngulo_10" data-name="Rect치ngulo 10" class="cls-1" width="406" height="406"/><path id="Trazado_28" data-name="Trazado 28" class="cls-2" d="M66.91,226.25v10.41h.3a30,30,0,0,1,10-9.22,27.16,27.16,0,0,1,13.44-3.29A31,31,0,0,1,104,227a18.64,18.64,0,0,1,9.12,10,32.93,32.93,0,0,1,9.29-8.93,24.78,24.78,0,0,1,13.89-3.84,40.67,40.67,0,0,1,11.29,1.48,22.82,22.82,0,0,1,8.91,4.75,22,22,0,0,1,5.79,8.55,34.48,34.48,0,0,1,2.08,12.69V303H143.25V259.52c0-2.58-.12-4.93-.3-7.28a15.6,15.6,0,0,0-1.65-5.93,9.78,9.78,0,0,0-3.9-4,14.21,14.21,0,0,0-7.05-1.48,13.66,13.66,0,0,0-7.22,1.64,12.67,12.67,0,0,0-4.3,4.46,17.88,17.88,0,0,0-2.07,6.24,47.63,47.63,0,0,0-.56,7V303H95.12V259.89c0-2.27,0-4.54-.15-6.76A19,19,0,0,0,93.72,247,9.65,9.65,0,0,0,90,242.43a14.17,14.17,0,0,0-7.66-1.65,16.41,16.41,0,0,0-3.93.66A13.06,13.06,0,0,0,73.66,244a14.79,14.79,0,0,0-3.94,5.35,21.84,21.84,0,0,0-1.65,9.14V303H47V226.25Z"/><path id="Trazado_22" data-name="Trazado 22" class="cls-2" d="M196.12,284.63q4.75,4.62,13.66,4.6a19,19,0,0,0,11-3.19,13.36,13.36,0,0,0,5.63-6.76H245Q240.53,293.1,231.31,299A40.23,40.23,0,0,1,209,305a43.86,43.86,0,0,1-16.34-2.91,34.11,34.11,0,0,1-12.33-8.22,37,37,0,0,1-7.79-12.78,46.6,46.6,0,0,1-2.74-16.34,45.12,45.12,0,0,1,2.81-16,37.17,37.17,0,0,1,20.43-21.37,39.76,39.76,0,0,1,16-3.1A36.49,36.49,0,0,1,226.18,228a34.19,34.19,0,0,1,11.95,10.17,41.81,41.81,0,0,1,6.76,14.55,54.3,54.3,0,0,1,1.5,17.08H190.92Q191.37,280,196.12,284.63ZM220,244.22c-2.53-2.76-6.36-4.16-11.51-4.16a18.43,18.43,0,0,0-8.4,1.65A16.06,16.06,0,0,0,194.7,246a15.7,15.7,0,0,0-2.83,5.34,24.73,24.73,0,0,0-1,5h34.31A24.68,24.68,0,0,0,220,244.22Z"/><path id="Trazado_23" data-name="Trazado 23" class="cls-2" d="M273.71,196.94V303H252.62v-106Z"/><path id="Trazado_24" data-name="Trazado 24" class="cls-2" d="M282.7,248a35.13,35.13,0,0,1,20.5-21,43.61,43.61,0,0,1,16.34-2.89A44.31,44.31,0,0,1,336,227.07a35,35,0,0,1,20.57,21,46.81,46.81,0,0,1,2.79,16.7,46.21,46.21,0,0,1-2.82,16.63,35.79,35.79,0,0,1-8,12.69,34.65,34.65,0,0,1-12.55,8.1A45.42,45.42,0,0,1,319.5,305a44.92,44.92,0,0,1-16.34-2.83,34.82,34.82,0,0,1-12.47-8.1,35.82,35.82,0,0,1-8-12.69,46.64,46.64,0,0,1-2.82-16.63A47.28,47.28,0,0,1,282.7,248Zm19.1,25.69a23.46,23.46,0,0,0,3,7.87,16,16,0,0,0,5.72,5.56,17.38,17.38,0,0,0,8.91,2.09,17.63,17.63,0,0,0,9-2.09,16,16,0,0,0,5.8-5.56,24,24,0,0,0,3-7.87,44.5,44.5,0,0,0,.89-9,45.93,45.93,0,0,0-.89-9.06,23,23,0,0,0-3-7.87,17.2,17.2,0,0,0-5.8-5.58,17.43,17.43,0,0,0-9-2.15,17,17,0,0,0-8.91,2.15,17.24,17.24,0,0,0-5.72,5.58,22.79,22.79,0,0,0-3,7.87,45.94,45.94,0,0,0-.9,9.06,44.51,44.51,0,0,0,.9,9Z"/><rect id="Rect치ngulo_11" data-name="Rect치ngulo 11" class="cls-2" x="161.96" y="73" width="24.99" height="25.46" rx="12.49"/><path id="Trazado_33" data-name="Trazado 33" class="cls-2" d="M203.17,117.2v55.48H202c-51.83,0-72.84-53.84-72.84-53.84V99.71a147.27,147.27,0,0,0,36.35,13.38A175.06,175.06,0,0,0,203.17,117.2Z"/><path id="Trazado_32" data-name="Trazado 32" class="cls-2" d="M47,320.08v-.69h1.87v-2.13a2.64,2.64,0,0,1,.18-1,1.88,1.88,0,0,1,.51-.64,2,2,0,0,1,.73-.36,3,3,0,0,1,.89-.13,5.77,5.77,0,0,1,.92.11V316a4.83,4.83,0,0,0-.92-.12,2,2,0,0,0-1.09.3,1.34,1.34,0,0,0-.44,1.19v2.07h2.18v.67H49.65v9.86h-.78v-9.86Z"/><path id="Trazado_31" data-name="Trazado 31" class="cls-2" d="M81.75,329.9H81v-2.29h0a3.2,3.2,0,0,1-.57,1,3.74,3.74,0,0,1-.89.79,4.28,4.28,0,0,1-1.09.49,4,4,0,0,1-1.2.16,4.61,4.61,0,0,1-1.56-.23,3,3,0,0,1-1.05-.59,2.34,2.34,0,0,1-.64-.82,4.85,4.85,0,0,1-.35-.92,5.64,5.64,0,0,1-.11-.92v-7.33h.77v6.57a8.17,8.17,0,0,0,0,1,3,3,0,0,0,.35,1.12,2.45,2.45,0,0,0,.89.92,2.91,2.91,0,0,0,1.64.39,3.57,3.57,0,0,0,1.64-.33A3.14,3.14,0,0,0,80,328a3.77,3.77,0,0,0,.74-1.38,5.87,5.87,0,0,0,.25-1.77V319.4h.79Z"/><path id="Trazado_30" data-name="Trazado 30" class="cls-2" d="M104.42,319.39h.77v2.26h0a3.53,3.53,0,0,1,.58-1.06,4.09,4.09,0,0,1,.87-.79,4.14,4.14,0,0,1,1.18-.41,4.45,4.45,0,0,1,1.2-.16,5.11,5.11,0,0,1,1.56.21,3.1,3.1,0,0,1,1.06.6,3.42,3.42,0,0,1,.64.82,5.15,5.15,0,0,1,.33.93,5.49,5.49,0,0,1,.14.89v7.25H112v-6.58a8,8,0,0,0,0-1,2.59,2.59,0,0,0-.36-1.12,2.67,2.67,0,0,0-.89-.94,2.94,2.94,0,0,0-1.64-.37,3.56,3.56,0,0,0-1.64.31,3.49,3.49,0,0,0-1.27.79,3.77,3.77,0,0,0-.74,1.38,5.52,5.52,0,0,0-.26,1.76v5.67h-.78Z"/><path id="Trazado_29" data-name="Trazado 29" class="cls-2" d="M135.39,319.39h.77v2.26h0a3.53,3.53,0,0,1,.58-1.06,4,4,0,0,1,.89-.79,3.85,3.85,0,0,1,1.08-.47,4.46,4.46,0,0,1,1.2-.17,4.87,4.87,0,0,1,1.65.22,3.12,3.12,0,0,1,1.05.59,3,3,0,0,1,.64.82,3.89,3.89,0,0,1,.33.94,4.54,4.54,0,0,1,.13.9v7.25h-.77V323.3a8,8,0,0,0,0-1,2.58,2.58,0,0,0-.35-1.12,2.79,2.79,0,0,0-.9-.94,3,3,0,0,0-1.64-.38,3.74,3.74,0,0,0-1.65.32,3.63,3.63,0,0,0-1.18.92,3.77,3.77,0,0,0-.74,1.38,6.15,6.15,0,0,0-.26,1.76v5.67h-.78Z"/><path id="Trazado_27" data-name="Trazado 27" class="cls-2" d="M165.11,319.39h.9l3.9,9.57,3.67-9.57h.87L170,331c-.21.53-.41,1-.59,1.35a2.5,2.5,0,0,1-.63.82,2,2,0,0,1-1,.4,12,12,0,0,1-1.47,0v-.68a4.42,4.42,0,0,0,1.3-.13,1.92,1.92,0,0,0,.88-.54,2.38,2.38,0,0,0,.46-.82c.17-.4.38-.94.61-1.65Z"/><path id="Trazado_26" data-name="Trazado 26" class="cls-2" d="M230.52,319.39v9.95a7,7,0,0,1-.2,1.64,3.93,3.93,0,0,1-.71,1.47,3.37,3.37,0,0,1-1.38,1,5.51,5.51,0,0,1-2.2.37,7,7,0,0,1-1.64-.16,4,4,0,0,1-1.28-.56,2.76,2.76,0,0,1-.89-1,3.38,3.38,0,0,1-.36-1.53h.77a2.65,2.65,0,0,0,.35,1.19,2.36,2.36,0,0,0,.74.8,3.19,3.19,0,0,0,1,.46,5.56,5.56,0,0,0,1.22.13,4,4,0,0,0,1.81-.33,2.9,2.9,0,0,0,1.75-2,5,5,0,0,0,.17-1.33v-2.35h0a4.05,4.05,0,0,1-1.48,1.77,4.16,4.16,0,0,1-2.3.63,4.79,4.79,0,0,1-2-.41,3.94,3.94,0,0,1-1.4-1.1,4.36,4.36,0,0,1-.83-1.65,7,7,0,0,1-.27-2,7.4,7.4,0,0,1,.28-2,5.18,5.18,0,0,1,.87-1.64,4.3,4.3,0,0,1,1.42-1.12,4.52,4.52,0,0,1,2-.41,4.3,4.3,0,0,1,2.29.63,3.49,3.49,0,0,1,1.51,1.79h0v-2.2Zm-4.58.45a3.26,3.26,0,0,0-1.65.38,3.37,3.37,0,0,0-1.17,1,4.67,4.67,0,0,0-.69,1.44,5.77,5.77,0,0,0-.23,1.65,6.08,6.08,0,0,0,.23,1.74,4.26,4.26,0,0,0,.71,1.45,3.74,3.74,0,0,0,1.19,1,3.85,3.85,0,0,0,1.64.36,3.72,3.72,0,0,0,1.64-.38,3.39,3.39,0,0,0,1.19-1,4.14,4.14,0,0,0,.67-1.5,6.13,6.13,0,0,0,.23-1.64,6.57,6.57,0,0,0-.23-1.65,4.28,4.28,0,0,0-.72-1.43,3.42,3.42,0,0,0-1.19-1,3.55,3.55,0,0,0-1.62-.42Z"/><path id="Trazado_25" data-name="Trazado 25" class="cls-2" d="M260.18,327.82h0a2.83,2.83,0,0,1-.53.88,3.58,3.58,0,0,1-.85.75,4.71,4.71,0,0,1-1.12.51,5.54,5.54,0,0,1-1.4.18,4.07,4.07,0,0,1-2.58-.72,2.66,2.66,0,0,1-.92-2.24,2.58,2.58,0,0,1,1.3-2.42,3.85,3.85,0,0,1,1.23-.48,11.5,11.5,0,0,1,1.31-.2l1.22-.11a7.14,7.14,0,0,0,1.3-.18,1.52,1.52,0,0,0,.72-.38.86.86,0,0,0,.31-.59,4.71,4.71,0,0,0,0-.92,1.78,1.78,0,0,0-.67-1.45,2.48,2.48,0,0,0-.9-.46,5.09,5.09,0,0,0-1.35-.15,3.63,3.63,0,0,0-2.27.69,2.7,2.7,0,0,0-.85,2.14h-.79a3.43,3.43,0,0,1,1.12-2.6,4.49,4.49,0,0,1,2.92-.86,4.26,4.26,0,0,1,2.77.74,2.47,2.47,0,0,1,.87,1.94v6.58a1.27,1.27,0,0,0,0,.39.42.42,0,0,0,.2.3.59.59,0,0,0,.41.12,2.71,2.71,0,0,0,.57,0v.66a3.42,3.42,0,0,1-.64,0,1.89,1.89,0,0,1-.74-.12.94.94,0,0,1-.41-.33,1.16,1.16,0,0,1-.2-.47,3.11,3.11,0,0,1,0-.61Zm0-3.88a1.49,1.49,0,0,1-.87.46,11.68,11.68,0,0,1-1.3.2l-1.3.12a11.19,11.19,0,0,0-1.16.18,2.81,2.81,0,0,0-1,.38,2,2,0,0,0-.76.72,2.23,2.23,0,0,0-.28,1.19,2,2,0,0,0,.74,1.64,3.19,3.19,0,0,0,2,.56,4.06,4.06,0,0,0,2.1-.48,3.65,3.65,0,0,0,1.18-1.1,3.5,3.5,0,0,0,.53-1.2,6.83,6.83,0,0,0,.11-.79Z"/><path id="Trazado_21" data-name="Trazado 21" class="cls-2" d="M283.83,319.39h.77v2.16h0a3,3,0,0,1,.43-.94,3.65,3.65,0,0,1,.76-.76,3.5,3.5,0,0,1,2.1-.69,3.83,3.83,0,0,1,1.3.19,3.11,3.11,0,0,1,.93.5,2.59,2.59,0,0,1,.93,1.53h0a3.67,3.67,0,0,1,1.25-1.64,3.45,3.45,0,0,1,2.07-.56,3.64,3.64,0,0,1,1.31.22,2.74,2.74,0,0,1,1,.64,3.05,3.05,0,0,1,.69,1.11,4.86,4.86,0,0,1,.25,1.65V330h-.78v-7.27a3.32,3.32,0,0,0-.31-1.64,2.53,2.53,0,0,0-.72-.87,2,2,0,0,0-.84-.36,3.42,3.42,0,0,0-.64,0,3.31,3.31,0,0,0-1.32.23,2.69,2.69,0,0,0-1,.74,3.32,3.32,0,0,0-.69,1.21,5.12,5.12,0,0,0-.25,1.65v6.2h-.77v-7.16a3.39,3.39,0,0,0-.3-1.54,2.18,2.18,0,0,0-1.51-1.25,3.64,3.64,0,0,0-.66,0,3.43,3.43,0,0,0-1.14.21,3.32,3.32,0,0,0-1.08.69,3.83,3.83,0,0,0-.81,1.22,4.64,4.64,0,0,0-.3,1.73v6.2h-.77Z"/><path id="Trazado_20" data-name="Trazado 20" class="cls-2" d="M320.72,324.75v.14a6.89,6.89,0,0,0,.23,1.75,4.33,4.33,0,0,0,.74,1.47,3.52,3.52,0,0,0,1.2,1,3.75,3.75,0,0,0,1.65.36,3.61,3.61,0,0,0,2.48-.82,4.3,4.3,0,0,0,1.26-2.3h.79a4.63,4.63,0,0,1-1.51,2.81,4.47,4.47,0,0,1-3,1,4.81,4.81,0,0,1-2-.41,4,4,0,0,1-1.45-1.15,4.48,4.48,0,0,1-.87-1.64,7.1,7.1,0,0,1-.3-2.14,8.26,8.26,0,0,1,.3-2.1,5.18,5.18,0,0,1,.89-1.77,4.17,4.17,0,0,1,1.48-1.22,4.4,4.4,0,0,1,2.08-.46,4.53,4.53,0,0,1,2,.4,4,4,0,0,1,1.41,1.11,5.15,5.15,0,0,1,.88,1.65,6.66,6.66,0,0,1,.3,2v.44Zm7.71-.65a6.58,6.58,0,0,0-.3-1.65,4.4,4.4,0,0,0-.72-1.35,3.88,3.88,0,0,0-1.17-.92,3.32,3.32,0,0,0-1.64-.34,3.9,3.9,0,0,0-1.65.34,4,4,0,0,0-1.2.94,3.94,3.94,0,0,0-.75,1.36,5.83,5.83,0,0,0-.33,1.65Z"/><path id="Trazado_19" data-name="Trazado 19" class="cls-2" d="M351.77,326.41a3.13,3.13,0,0,0,1.07,2.25,3.45,3.45,0,0,0,1.07.61,4.29,4.29,0,0,0,1.33.2,6.59,6.59,0,0,0,1.09-.1,3.46,3.46,0,0,0,1.08-.33,2.2,2.2,0,0,0,.82-.69,1.74,1.74,0,0,0,.33-1.1,1.63,1.63,0,0,0-.52-1.33,3.85,3.85,0,0,0-1.35-.69,13.22,13.22,0,0,0-1.65-.4,8.11,8.11,0,0,1-1.72-.46,3.53,3.53,0,0,1-1.35-.87,2.38,2.38,0,0,1-.53-1.64,2.31,2.31,0,0,1,.35-1.28,2.47,2.47,0,0,1,.89-.84,4.07,4.07,0,0,1,1.21-.43,6.86,6.86,0,0,1,1.35-.13,5.62,5.62,0,0,1,1.53.18A3.12,3.12,0,0,1,358,320a2.5,2.5,0,0,1,.81,1,3.64,3.64,0,0,1,.3,1.53h-.77a3,3,0,0,0-.23-1.22,2.17,2.17,0,0,0-.66-.84,3.2,3.2,0,0,0-1-.46,4.5,4.5,0,0,0-1.21-.14,5.46,5.46,0,0,0-1.07.1,2.81,2.81,0,0,0-1,.34,2.14,2.14,0,0,0-.71.63,1.69,1.69,0,0,0-.28.93,1.55,1.55,0,0,0,.31,1,2.17,2.17,0,0,0,.81.63,5.45,5.45,0,0,0,1.12.37l1.25.28c.52.1,1,.22,1.46.35a4.16,4.16,0,0,1,1.18.52,2.56,2.56,0,0,1,.79.88,2.84,2.84,0,0,1,.28,1.34,2.37,2.37,0,0,1-.38,1.4,2.79,2.79,0,0,1-1,.89,4.45,4.45,0,0,1-1.32.48,8.31,8.31,0,0,1-1.41.13,5.65,5.65,0,0,1-1.64-.23,3.9,3.9,0,0,1-1.35-.72,3.29,3.29,0,0,1-.89-1.17,3.87,3.87,0,0,1-.35-1.64Z"/></g></g></svg>